<?xml version="1.0" standalone="no"?>
        <!DOCTYPE svg PUBLIC "-//W3C//DTD SVG 1.1//EN" 
        "http://www.w3.org/Graphics/SVG/1.1/DTD/svg11.dtd"><svg id="changeColor" fill="#DC7633" xmlns="http://www.w3.org/2000/svg" xmlns:xlink="http://www.w3.org/1999/xlink" width="200" zoomAndPan="magnify" viewBox="0 0 375 374.9999" height="200" version="1.0" style="transform: none;"><defs><path id="pathAttribute" d="M 39.289062 17.113281 L 335.539062 17.113281 L 335.539062 357.613281 L 39.289062 357.613281 Z M 39.289062 17.113281 " fill="green" stroke-width="0" stroke="#727272" filter="url(#bgShadow)"><filter id="bgShadow"><feDropShadow id="bgShadowValue" stdDeviation=".5" dx="0" dy="0" flood-color="black"></feDropShadow></filter></path></defs><path id="pathAttribute" d="M 39.292969 102.238281 L 39.292969 272.488281 L 187.414062 357.613281 L 335.535156 272.488281 L 335.535156 102.238281 L 187.414062 17.113281 L 39.292969 102.238281 M 327.511719 106.871094 L 327.511719 267.859375 L 187.414062 348.351562 L 47.316406 267.859375 L 47.316406 106.871094 L 187.414062 26.375 L 327.511719 106.871094 " fill-opacity="1" fill-rule="nonzero" fill="green" stroke-width="0" stroke="#727272" filter="url(#bgShadow)"></path><g id="inner-icon" transform="translate(85, 75)"> <svg role="img" viewBox="0 0 24 24" xmlns="http://www.w3.org/2000/svg" id="IconChangeColor" height="218" width="218"><title>MongoDB</title><path d="M17.193 9.555c-1.264-5.58-4.252-7.414-4.573-8.115-.28-.394-.53-.954-.735-1.44-.036.495-.055.685-.523 1.184-.723.566-4.438 3.682-4.74 10.02-.282 5.912 4.27 9.435 4.888 9.884l.07.05A73.49 73.49 0 0111.91 24h.481c.114-1.032.284-2.056.51-3.07.417-.296.604-.463.85-.693a11.342 11.342 0 003.639-8.464c.01-.814-.103-1.662-.197-2.218zm-5.336 8.195s0-8.291.275-8.29c.213 0 .49 10.695.49 10.695-.381-.045-.765-1.76-.765-2.405z" id="mainIconPathAttribute" fill="green" stroke-width="0" stroke="#ff0000"></path></svg> </g><animateTransform xlink:href="#changeColor" attributeType="xml" attributeName="transform" type="rotate" from="0" to="359" dur="2s" repeatCount="indefinite"></animateTransform></svg>